<svg width="40" height="40" viewBox="0 0 40 40" fill="none" xmlns="http://www.w3.org/2000/svg">
<path d="M5 13C5 9.22876 5 7.34315 6.17157 6.17157C7.34315 5 9.22876 5 13 5H27C30.7712 5 32.6569 5 33.8284 6.17157C35 7.34315 35 9.22876 35 13V27C35 30.7712 35 32.6569 33.8284 33.8284C32.6569 35 30.7712 35 27 35H13C9.22876 35 7.34315 35 6.17157 33.8284C5 32.6569 5 30.7712 5 27V13Z" stroke="#75716B"/>
<path fill-rule="evenodd" clip-rule="evenodd" d="M33 25.626L29.8486 22.4746L29.8228 22.4488C29.1781 21.8041 28.6585 21.2844 28.1948 20.9307C27.7135 20.5634 27.2342 20.3282 26.6667 20.3282C26.0992 20.3282 25.6199 20.5634 25.1385 20.9307C24.6749 21.2844 24.1552 21.804 23.5106 22.4487L23.4847 22.4746L21.7353 24.224C21.2505 24.7088 20.926 25.0315 20.6609 25.2283C20.4041 25.419 20.3004 25.4169 20.2428 25.4059C20.1852 25.3948 20.0881 25.3581 19.9205 25.0857C19.7475 24.8045 19.566 24.3844 19.2959 23.7542L17.7869 20.2332L17.7698 20.1932C17.2571 18.9969 16.8499 18.0467 16.4367 17.3751C16.0135 16.6873 15.5221 16.1873 14.7981 16.0479C14.0742 15.9085 13.4323 16.1902 12.7839 16.6717C12.1508 17.1418 11.4198 17.8728 10.4996 18.7931L10.4688 18.8239L7 22.2926V23.7068L11.1759 19.531C12.1339 18.5729 12.8133 17.8954 13.3801 17.4745C13.9386 17.0598 14.2909 16.9686 14.609 17.0299C14.9272 17.0911 15.2204 17.3066 15.5849 17.8991C15.9549 18.5004 16.3341 19.3818 16.8678 20.6271L18.3768 24.1481L18.3925 24.1848C18.6427 24.7686 18.8524 25.258 19.0687 25.6097C19.295 25.9775 19.5902 26.2986 20.0536 26.3878C20.5171 26.4771 20.9104 26.2886 21.2571 26.0312C21.5886 25.785 21.9651 25.4085 22.4142 24.9593L22.4424 24.9311L24.1918 23.1817C24.8685 22.5051 25.3411 22.0339 25.7451 21.7257C26.1375 21.4263 26.4057 21.3282 26.6667 21.3282C26.9276 21.3282 27.1958 21.4263 27.5882 21.7257C27.9922 22.0339 28.4649 22.5051 29.1415 23.1817L32.9798 27.02L33 26.9997V25.626Z" fill="#75716B"/>
<circle cx="27.5" cy="12.5" r="2.5" fill="#75716B"/>
</svg>
